#!OML:ASF X:\für Bonn\!DataBase\2005_08_10_Bjorn_Final\c3d\bjorn.ASF
:FULLY-SPECIFIED
:DEGREES
592
root 0.118437 1.65032 11.8836 -2073.14 -8.85633 185.789
lowerback 1.77386 1.31605 -6.38592
upperback 3.67346 1.43576 -5.44615
thorax 2.77554 0.428375 -2.05814
lowerneck -18.6963 -7.08613 -1.55242
upperneck 7.97124 -10.7783 8.47676
head 6.00771 -4.88446 1.75992
rclavicle 5.08889e-014 -5.6753e-014
rhumerus -53.9644 38.2554 -104.659
rradius 114.302
rwrist -14.7495
rhand -14.7377 14.1316
rfingers 7.12502
rthumb 11.4178 -15.5375
lclavicle 5.08889e-014 -5.6753e-014
lhumerus -51.3456 -53.4213 99.0371
lradius 113.466
lwrist 28.1896
lhand 1.25466 -15.5802
lfingers 7.12502
lthumb 26.7916 732.542
rfemur -363.322 -12.312 367.727
rtibia 22.8754
rfoot 15.7948 6.89749
rtoes 0.182853
lfemur -25.6495 1.46113 -16.2219
ltibia 64.0321
lfoot 26.7218 8.95537
ltoes -8.96421
593
root 0.117904 1.64998 11.8802 -2073.03 -8.87282 185.809
lowerback 1.66009 1.3085 -6.35986
upperback 3.61796 1.43794 -5.44363
thorax 2.78244 0.43296 -2.06794
lowerneck -18.63 -7.13749 -1.68595
upperneck 8.07181 -10.8197 8.48787
head 6.03873 -4.90437 1.77932
rclavicle 3.18055e-015 -7.11649e-014
rhumerus -53.8396 38.2932 -104.736
rradius 113.651
rwrist -15.8095
rhand -13.9857 14.2025
rfingers 7.12502
rthumb 12.1429 -15.4251
lclavicle 3.18055e-015 -7.11649e-014
lhumerus -51.6808 -53.3582 99.7943
lradius 112.885
lwrist 28.2642
lhand 1.5162 -15.609
lfingers 7.12502
lthumb 27.0418 732.475
rfemur -363.371 -12.2704 367.73
rtibia 22.831
rfoot 15.9298 6.68256
rtoes 0.252201
lfemur -25.8028 0.995469 -16.356
ltibia 64.047
lfoot 26.7981 8.94694
ltoes -9.05775
594
root 0.11654 1.64908 11.8761 -2072.91 -8.89237 185.824
lowerback 1.52737 1.30401 -6.30503
upperback 3.5707 1.44474 -5.47327
thorax 2.81009 0.439396 -2.12701
lowerneck -18.5386 -7.15859 -1.71502
upperneck 8.131 -10.8395 8.46315
head 6.04374 -4.91638 1.77561
rclavicle 1.27222e-014 5.86415e-015
rhumerus -53.6768 38.3321 -104.776
rradius 113.028
rwrist -16.7307
rhand -13.2116 14.2733
rfingers 7.12502
rthumb 12.8892 -15.3087
lclavicle 1.27222e-014 5.86415e-015
lhumerus -51.9122 -53.304 100.335
lradius 112.278
lwrist 28.2587
lhand 1.82236 -15.7345
lfingers 7.12502
lthumb 27.3347 732.304
rfemur -363.442 -12.2774 367.716
rtibia 22.7979
rfoot 16.0795 6.4817
rtoes 0.469007
lfemur -25.9784 0.517897 -16.5009
ltibia 64.076
lfoot 26.8995 8.98272
ltoes -8.95321
595
root 0.115359 1.64885 11.872 -2072.8 -8.91082 185.849
lowerback 1.39702 1.294 -6.27148
upperback 3.52378 1.44503 -5.4838
thorax 2.8359 0.442432 -2.15444
lowerneck -18.4687 -7.18261 -1.75207
upperneck 8.20359 -10.8585 8.42263
head 6.05579 -4.92776 1.7675
rclavicle 4.77083e-015 3.91606e-014
rhumerus -53.6096 38.3596 -104.779
rradius 112.5
rwrist -17.5534
rhand -12.521 14.2454
rfingers 7.12502
rthumb 13.5549 -15.2934
lclavicle 4.77083e-015 3.91606e-014
lhumerus -52.1178 -53.2028 100.798
lradius 111.712
lwrist 28.3246
lhand 2.15465 -15.8237
lfingers 7.12502
lthumb 27.6525 732.164
rfemur -363.512 -12.3137 367.695
rtibia 22.775
rfoot 16.1977 6.24413
rtoes 0.788052
lfemur -26.1435 0.0560684 -16.6429
ltibia 64.1041
lfoot 27.0103 8.94626
ltoes -8.91558
596
root 0.114012 1.64786 11.8678 -2072.68 -8.93003 185.875
lowerback 1.27032 1.28023 -6.23824
upperback 3.47319 1.43911 -5.50577
thorax 2.8562 0.442379 -2.19375
lowerneck -18.3755 -7.18215 -1.74409
upperneck 8.26914 -10.8504 8.35663
head 6.05649 -4.92723 1.74867
rclavicle 1.43125e-014 4.27387e-014
rhumerus -53.6574 38.3464 -104.846
rradius 112.053
rwrist -18.2246
rhand -11.9333 14.1206
rfingers 7.12502
rthumb 14.1213 -15.3795
lclavicle 1.43125e-014 4.27387e-014
lhumerus -52.3025 -53.1302 101.147
lradius 111.175
lwrist 28.5006
lhand 2.44648 -15.9074
lfingers 7.12502
lthumb 27.9315 732.035
rfemur -363.595 -12.3877 367.671
rtibia 22.7628
rfoot 16.2995 6.04314
rtoes 0.984657
lfemur -26.313 -0.428003 -16.792
ltibia 64.1379
lfoot 27.1049 8.91398
ltoes -8.95796
597
root 0.112373 1.64648 11.8628 -2072.56 -8.9489 185.91
lowerback 1.14745 1.2633 -6.22353
upperback 3.42347 1.42982 -5.50551
thorax 2.87428 0.440569 -2.19969
lowerneck -18.2722 -7.19081 -1.8062
upperneck 8.31203 -10.8409 8.3296
head 6.05436 -4.9259 1.75359
rclavicle 1.43125e-014 6.36111e-015
rhumerus -53.6926 38.3221 -104.823
rradius 111.644
rwrist -18.8285
rhand -11.3028 13.9821
rfingers 7.12502
rthumb 14.7288 -15.4746
lclavicle 1.43125e-014 6.36111e-015
lhumerus -52.4326 -53.0153 101.477
lradius 110.644
lwrist 28.7362
lhand 2.71423 -15.8641
lfingers 7.12502
lthumb 28.1875 732.037
rfemur -363.695 -12.4718 367.647
rtibia 22.7751
rfoot 16.3443 5.83223
rtoes 1.08998
lfemur -26.489 -0.902757 -16.9359
ltibia 64.1752
lfoot 27.2314 8.88378
ltoes -8.88027
598
root 0.110577 1.64559 11.8578 -2072.46 -8.96715 185.953
lowerback 1.0303 1.23333 -6.22664
upperback 3.38579 1.40427 -5.4941
thorax 2.90114 0.430103 -2.1845
lowerneck -18.2539 -7.18713 -1.86914
upperneck 8.43509 -10.8107 8.26129
head 6.08786 -4.91101 1.74435
rclavicle 3.49861e-014 -2.22639e-014
rhumerus -53.714 38.3211 -104.753
rradius 111.254
rwrist -19.3712
rhand -10.7048 13.8524
rfingers 7.12502
rthumb 15.3048 -15.5613
lclavicle 3.49861e-014 -2.22639e-014
lhumerus -52.475 -52.8747 101.681
lradius 110.14
lwrist 29.0887
lhand 2.99587 -15.7586
lfingers 7.12502
lthumb 28.4566 732.097
rfemur -363.779 -12.635 367.603
rtibia 22.7921
rfoot 16.3939 5.66461
rtoes 1.15992
lfemur -26.6465 -1.40459 -17.0812
ltibia 64.2132
lfoot 27.3225 8.92622
ltoes -8.72665
599
root 0.10853 1.64493 11.8533 -2072.33 -9.00093 185.988
lowerback 0.892889 1.21106 -6.21886
upperback 3.32753 1.38706 -5.52827
thorax 2.91941 0.423729 -2.22255
lowerneck -18.1786 -7.17093 -1.84184
upperneck 8.52039 -10.7884 8.19653
head 6.09621 -4.90186 1.72371
rclavicle 0 -7.65321e-015
rhumerus -53.7194 38.2296 -104.723
rradius 110.872
rwrist -19.9082
rhand -10.2799 13.6704
rfingers 7.12502
rthumb 15.7141 -15.7116
lclavicle 0 -7.65321e-015
lhumerus -52.515 -52.7844 101.773
lradius 109.68
lwrist 29.5393
lhand 3.30079 -15.5516
lfingers 7.12502
lthumb 28.7479 732.255
rfemur -363.902 -12.9239 367.528
rtibia 22.8217
rfoot 16.4608 5.58881
rtoes 1.08018
lfemur -26.8264 -1.90588 -17.2474
ltibia 64.2547
lfoot 27.4291 8.87888
ltoes -8.67512
600
root 0.106146 1.64392 11.8486 -2072.21 -9.02024 186.036
lowerback 0.765409 1.16169 -6.24231
upperback 3.27705 1.33721 -5.51639
thorax 2.93861 0.401535 -2.1959
lowerneck -18.1404 -7.13413 -1.81811
upperneck 8.64187 -10.7236 8.06563
head 6.11587 -4.87236 1.68654
rclavicle -6.36111e-015 -4.18442e-014
rhumerus -53.74 38.2086 -104.628
rradius 110.52
rwrist -20.4047
rhand -9.95248 13.5221
rfingers 7.12502
rthumb 16.0294 -15.8348
lclavicle -6.36111e-015 -4.18442e-014
lhumerus -52.4329 -52.5703 101.782
lradius 109.246
lwrist 30.1332
lhand 3.68512 -15.2315
lfingers 7.12502
lthumb 29.115 732.512
rfemur -364.009 -13.2047 367.463
rtibia 22.8488
rfoot 16.5014 5.47714
rtoes 1.09071
lfemur -27.0033 -2.41941 -17.3969
ltibia 64.2983
lfoot 27.535 8.85838
ltoes -8.60858
601
root 0.103554 1.64304 11.843 -2072.09 -9.03878 186.084
lowerback 0.634903 1.12656 -6.22575
upperback 3.22274 1.30293 -5.55169
thorax 2.9574 0.387081 -2.24057
lowerneck -18.0737 -7.09464 -1.76097
upperneck 8.72518 -10.6772 8.0005
head 6.12239 -4.85052 1.66377
rclavicle -7.95139e-015 3.00165e-014
rhumerus -53.7642 38.084 -104.586
rradius 110.178
rwrist -20.82
rhand -9.66935 13.4081
rfingers 7.12502
rthumb 16.302 -15.9267
lclavicle -7.95139e-015 3.00165e-014
lhumerus -52.3452 -52.4186 101.693
lradius 108.844
lwrist 30.7372
lhand 4.04797 -14.8263
lfingers 7.12502
lthumb 29.4615 732.857
rfemur -364.126 -13.4439 367.403
rtibia 22.88
rfoot 16.5115 5.2868
rtoes 1.2496
lfemur -27.1837 -2.94828 -17.5443
ltibia 64.3478
lfoot 27.6138 8.89885
ltoes -8.37679
602
root 0.101284 1.64273 11.8392 -2071.96 -9.05766 186.131
lowerback 0.474557 1.08459 -6.24117
upperback 3.17661 1.26501 -5.55987
thorax 3.00034 0.369907 -2.23914
lowerneck -18.0307 -7.05064 -1.70634
upperneck 8.80981 -10.6118 7.88388
head 6.12906 -4.82114 1.62698
rclavicle -1.11319e-014 3.16068e-014
rhumerus -53.7527 38.0091 -104.45
rradius 109.869
rwrist -21.2431
rhand -9.39752 13.3339
rfingers 7.12502
rthumb 16.5638 -15.9792
lclavicle -1.11319e-014 3.16068e-014
lhumerus -52.1889 -52.2233 101.548
lradius 108.477
lwrist 31.2951
lhand 4.37183 -14.3373
lfingers 7.12502
lthumb 29.7706 733.291
rfemur -364.254 -13.7042 367.344
rtibia 22.9026
rfoot 16.5087 5.10726
rtoes 1.26146
lfemur -27.3757 -3.4775 -17.6885
ltibia 64.3976
lfoot 27.7068 8.91683
ltoes -8.01129
603
root 0.0990251 1.64255 11.8351 -2071.83 -9.07401 186.191
lowerback 0.322272 1.03841 -6.27274
upperback 3.12722 1.22124 -5.55764
thorax 3.03487 0.349809 -2.21821
lowerneck -17.9679 -7.01089 -1.67273
upperneck 8.88872 -10.5523 7.79629
head 6.13399 -4.79419 1.60239
rclavicle -2.8625e-014 1.0635e-014
rhumerus -53.773 37.9325 -104.302
rradius 109.581
rwrist -21.6663
rhand -9.16372 13.3575
rfingers 7.12502
rthumb 16.7888 -15.9366
lclavicle -2.8625e-014 1.0635e-014
lhumerus -52.0389 -52.0341 101.399
lradius 108.1
lwrist 31.7826
lhand 4.59382 -13.9376
lfingers 7.12502
lthumb 29.9825 733.653
rfemur -364.373 -13.917 367.29
rtibia 22.9289
rfoot 16.4412 4.8348
rtoes 1.34555
lfemur -27.5652 -4.0424 -17.8348
ltibia 64.4509
lfoot 27.7762 8.90783
ltoes -7.94248
604
root 0.0962284 1.64223 11.8312 -2071.69 -9.09197 186.247
lowerback 0.164539 0.995278 -6.31132
upperback 3.07566 1.18182 -5.55488
thorax 3.07012 0.33156 -2.19286
lowerneck -17.9096 -6.96442 -1.60603
upperneck 8.9502 -10.4878 7.69153
head 6.1312 -4.76565 1.56808
rclavicle 3.18055e-015 -5.81445e-014
rhumerus -53.7772 37.8476 -104.13
rradius 109.321
rwrist -22.0936
rhand -8.9649 13.3955
rfingers 7.12502
rthumb 16.9802 -15.8823
lclavicle 3.18055e-015 -5.81445e-014
lhumerus -51.8761 -51.8346 101.214
lradius 107.718
lwrist 32.1633
lhand 4.73783 -13.7841
lfingers 7.12502
lthumb 30.1199 733.781
rfemur -364.497 -14.102 367.24
rtibia 22.9485
rfoot 16.3423 4.4631
rtoes 1.48013
lfemur -27.7607 -4.61629 -17.9819
ltibia 64.5051
lfoot 27.8314 8.96795
ltoes -7.74025
